<?xml version="1.0" standalone="no"?>
<!DOCTYPE svg PUBLIC "-//W3C//DTD SVG 20010904//EN"
 "http://www.w3.org/TR/2001/REC-SVG-20010904/DTD/svg10.dtd">
<svg version="1.0" xmlns="http://www.w3.org/2000/svg"
 width="800.000000pt" height="800.000000pt" viewBox="0 0 800.000000 800.000000"
 preserveAspectRatio="xMidYMid meet">
<metadata>
Created by potrace 1.11, written by Peter Selinger 2001-2013
</metadata>
<g transform="translate(0.000000,800.000000) scale(0.100000,-0.100000)"
fill="#000000" stroke="none">
<path d="M1068 6673 c21 -38 53 -99 72 -138 19 -38 37 -72 40 -75 3 -3 17 -27
30 -55 14 -27 33 -62 43 -77 10 -16 15 -28 11 -28 -3 0 -2 -6 5 -13 6 -8 29
-49 52 -93 84 -162 132 -249 141 -261 6 -7 7 -13 2 -13 -5 0 -4 -4 1 -8 6 -4
24 -34 41 -67 17 -33 51 -98 76 -145 25 -47 76 -143 113 -215 37 -71 82 -157
100 -190 33 -60 95 -179 186 -352 26 -51 66 -125 87 -165 22 -40 65 -122 97
-183 32 -60 74 -141 95 -180 20 -38 63 -119 95 -180 57 -109 107 -203 224
-425 34 -63 78 -149 99 -190 20 -41 39 -77 42 -80 3 -3 21 -36 40 -73 28 -57
38 -68 55 -64 11 3 85 26 165 51 l145 46 74 78 c41 42 92 96 114 119 l40 42
-43 58 c-24 32 -50 65 -57 73 -8 8 -41 51 -74 95 -33 44 -67 89 -75 99 -9 10
-51 64 -92 120 -42 56 -84 108 -94 117 -10 9 -18 19 -18 22 0 5 -91 126 -163
217 -7 8 -35 44 -62 80 -63 82 -60 79 -95 120 -16 19 -30 38 -30 42 0 4 -8 15
-18 25 -10 10 -38 45 -62 78 -25 33 -47 62 -50 65 -3 3 -25 32 -50 65 -25 33
-47 62 -50 65 -3 3 -25 32 -50 65 -25 33 -47 62 -50 65 -3 3 -25 32 -50 65
-24 33 -51 67 -60 76 -8 8 -26 32 -40 52 -14 20 -28 37 -32 37 -5 0 -8 4 -8
10 0 5 -30 47 -66 92 -81 102 -76 96 -147 190 -31 42 -63 83 -70 90 -6 7 -55
69 -107 138 -52 69 -99 130 -105 136 -5 7 -19 24 -30 40 -11 15 -45 60 -75 98
-31 39 -129 167 -219 284 -90 117 -167 215 -172 217 -4 3 9 -25 29 -62z"/>
<path d="M6772 5469 c-9 -4 -24 -17 -32 -29 -12 -18 -95 -133 -154 -215 -8
-11 -48 -67 -90 -125 -41 -58 -78 -110 -83 -115 -4 -6 -24 -33 -42 -60 -19
-28 -37 -52 -40 -55 -4 -3 -10 -13 -16 -22 -22 -38 -259 -363 -267 -366 -4 -2
-8 -8 -8 -13 0 -6 -5 -15 -10 -22 -6 -7 -28 -37 -50 -67 -22 -30 -47 -64 -56
-75 -8 -11 -23 -32 -32 -47 -9 -16 -20 -28 -24 -28 -4 0 -8 -4 -8 -10 0 -5
-53 -83 -118 -172 -65 -90 -176 -244 -247 -343 -71 -99 -133 -181 -137 -183
-4 -2 -8 -8 -8 -12 0 -8 -57 -88 -115 -165 -20 -25 -19 -41 3 -73 10 -15 36
-58 58 -97 39 -70 39 -70 41 -195 1 -69 5 -280 8 -470 4 -190 8 -400 9 -467 1
-67 5 -125 9 -129 4 -4 7 -2 7 5 0 7 10 33 21 59 12 26 32 72 46 102 14 30 25
57 26 60 1 3 16 35 34 73 18 37 33 70 33 72 0 3 15 35 32 72 18 38 33 70 34
73 1 8 28 67 79 175 25 53 45 99 45 101 0 2 17 41 38 86 22 46 94 207 162 358
68 151 127 279 131 284 5 6 9 18 9 28 0 10 4 18 8 18 4 0 8 10 9 22 1 11 6 24
11 27 4 3 19 31 31 61 13 30 37 84 53 120 17 36 69 151 115 255 47 105 89 195
93 200 4 6 11 21 15 34 4 13 26 65 50 115 42 90 64 138 112 246 41 93 95 212
124 275 15 33 37 83 50 110 12 28 35 79 51 115 16 36 29 66 29 67 0 2 13 29
29 62 17 33 30 62 30 65 0 3 17 41 37 83 20 43 38 80 38 83 1 3 5 13 10 23 4
10 5 20 2 23 -7 8 -166 10 -185 3z"/>
<path d="M7121 5452 l-34 -3 50 -47 c28 -26 92 -85 143 -132 51 -47 107 -98
125 -115 18 -16 79 -73 135 -125 57 -52 114 -105 127 -118 13 -13 23 -20 23
-17 0 6 -155 202 -170 215 -3 3 -28 34 -55 69 -28 35 -57 71 -65 80 -8 9 -33
40 -55 69 -21 28 -43 52 -47 52 -4 0 -8 5 -8 10 0 6 -12 23 -26 40 -28 30 -38
32 -143 22z"/>
<path d="M6991 5418 c-7 -18 -20 -46 -27 -62 -16 -33 -20 -27 76 -93 30 -21
57 -40 60 -43 3 -3 48 -34 100 -69 52 -36 97 -67 100 -70 3 -3 13 -10 22 -16
9 -5 63 -42 120 -82 57 -39 144 -99 193 -134 50 -34 93 -67 97 -73 4 -6 8 -7
8 -1 0 5 -22 30 -49 55 -61 56 -226 209 -305 281 -73 67 -89 82 -214 197 -117
109 -155 142 -162 142 -3 0 -11 -15 -19 -32z"/>
<path d="M6917 5248 c-24 -52 -116 -255 -250 -554 -25 -55 -59 -129 -76 -166
-42 -94 -64 -142 -65 -148 -1 -3 -13 -30 -28 -60 -43 -89 -88 -189 -88 -194 0
-3 -17 -42 -39 -88 -21 -46 -48 -103 -59 -128 -48 -108 -112 -250 -137 -305
-54 -118 -73 -161 -115 -255 -24 -52 -58 -128 -77 -168 -18 -41 -33 -75 -33
-77 0 -2 -20 -46 -45 -99 -25 -53 -45 -99 -45 -101 0 -2 -18 -43 -41 -92 -22
-48 -52 -113 -66 -143 -14 -30 -33 -73 -43 -95 -10 -22 -39 -85 -63 -140 -55
-124 -90 -199 -133 -293 -19 -40 -34 -74 -34 -77 0 -3 -34 -79 -87 -193 -13
-29 -23 -57 -21 -62 4 -10 140 -120 150 -120 4 0 10 10 14 23 4 12 19 49 34
82 15 33 60 137 100 230 40 94 81 188 91 210 10 22 84 193 165 380 81 187 156
360 167 385 11 25 21 50 23 55 1 6 17 42 35 80 18 39 33 72 34 75 6 18 20 51
38 90 11 25 22 50 23 55 2 9 105 247 138 320 14 31 179 418 190 445 3 8 10 22
15 30 5 8 13 26 19 40 9 24 45 107 93 215 12 28 23 55 25 60 3 11 170 394 210
483 13 29 24 55 24 58 0 3 10 26 21 52 39 84 59 133 59 143 0 5 -19 21 -42 36
-24 16 -44 31 -46 36 -7 15 -20 6 -35 -25z"/>
<path d="M4290 4671 c-34 -37 -233 -249 -315 -336 -22 -23 -94 -100 -160 -170
-66 -71 -136 -145 -155 -165 -19 -20 -89 -94 -155 -165 -132 -141 -171 -182
-259 -274 -33 -34 -57 -63 -55 -66 6 -5 279 -74 324 -81 17 -3 41 -9 55 -14
14 -4 66 -18 116 -29 51 -12 102 -24 115 -27 13 -3 35 -8 49 -11 14 -2 32 -7
40 -10 8 -3 24 -8 35 -10 11 -2 94 -21 184 -43 90 -22 164 -40 165 -40 1 0 2
10 3 23 5 149 15 411 18 482 8 196 17 416 20 535 2 69 5 125 5 125 1 0 3 71 6
158 2 86 3 157 2 156 -2 0 -19 -17 -38 -38z"/>
<path d="M4374 4638 c0 -29 -4 -132 -8 -228 -4 -96 -9 -238 -11 -315 -3 -77
-7 -183 -10 -235 -6 -133 -18 -459 -19 -559 l-1 -84 33 -2 c35 -3 147 -14 202
-20 19 -3 58 -7 85 -9 122 -12 182 -18 210 -22 17 -1 59 -6 95 -9 36 -3 79 -8
95 -10 17 -2 64 -7 105 -11 41 -3 78 -8 82 -10 3 -2 13 -1 21 2 15 5 1 39 -53
124 -31 50 -110 194 -110 201 0 5 -3 9 -8 9 -4 0 -15 17 -25 38 -10 20 -28 55
-41 77 -13 22 -55 96 -94 165 -39 69 -75 130 -79 135 -4 6 -16 26 -25 45 -10
19 -22 42 -28 50 -27 42 -179 312 -191 339 -8 17 -17 31 -21 31 -5 0 -8 5 -8
10 0 6 -11 27 -23 48 -13 20 -39 64 -57 97 -48 88 -110 195 -114 195 -1 0 -2
-24 -2 -52z"/>
<path d="M4492 4582 c2 -4 29 -51 61 -104 31 -53 57 -102 57 -107 0 -6 5 -11
10 -11 6 0 10 -4 10 -9 0 -6 63 -120 140 -255 77 -134 140 -249 140 -255 0 -6
3 -11 8 -11 4 0 12 -10 18 -23 22 -43 77 -142 100 -179 13 -21 24 -41 24 -45
0 -3 6 -14 14 -22 7 -9 32 -52 56 -96 55 -104 61 -111 74 -88 5 10 13 22 18
28 5 5 38 51 73 100 35 50 71 99 80 110 21 26 19 34 -12 65 -16 15 -82 84
-148 155 -66 70 -146 156 -179 189 -32 34 -108 114 -170 180 -61 65 -144 152
-184 195 -41 42 -98 102 -127 134 -48 51 -73 71 -63 49z"/>
<path d="M7405 4309 c-16 -5 -50 -11 -75 -15 -25 -3 -61 -9 -80 -14 -19 -5
-51 -11 -70 -14 -19 -3 -46 -8 -60 -11 -14 -3 -38 -7 -55 -9 -16 -3 -77 -14
-135 -25 -93 -18 -137 -26 -190 -35 -104 -18 -97 -14 -120 -69 -12 -29 -30
-70 -40 -92 -10 -22 -34 -78 -53 -125 -19 -47 -46 -107 -58 -135 -13 -27 -24
-54 -25 -60 -1 -5 -21 -53 -44 -105 -23 -52 -45 -104 -50 -115 -51 -116 -71
-168 -66 -172 5 -5 150 52 263 103 28 13 59 24 67 24 8 0 41 26 73 59 57 57
83 85 333 351 69 73 150 159 180 191 119 124 245 261 248 270 4 11 -3 10 -43
-2z"/>
<path d="M5638 4015 c-3 -3 -72 -19 -154 -36 -82 -16 -156 -31 -164 -33 -38
-9 -106 -20 -113 -18 -5 1 -5 -4 0 -12 12 -22 207 -226 215 -226 4 0 51 62
105 138 53 75 100 139 104 142 3 3 9 15 13 28 7 21 5 28 -6 17z"/>
<path d="M2980 3410 c-80 -26 -293 -96 -475 -155 -325 -106 -331 -108 -405
-165 -188 -144 -488 -373 -514 -393 -16 -12 -41 -31 -55 -43 -14 -11 -89 -69
-166 -127 -151 -114 -206 -156 -330 -252 -44 -34 -138 -106 -210 -160 -161
-123 -145 -110 -180 -138 -16 -13 -100 -77 -185 -142 -85 -66 -160 -124 -167
-129 -6 -6 -28 -22 -48 -36 -52 -37 -92 -72 -75 -66 8 3 26 8 40 10 14 3 111
28 215 56 105 29 197 54 205 56 20 5 219 58 295 78 33 9 112 30 175 47 63 17
171 46 240 65 69 19 135 36 145 39 11 2 137 36 280 75 143 38 267 72 275 74 8
1 22 5 30 8 8 3 80 22 160 43 140 36 332 88 528 141 51 14 98 27 105 28 22 5
70 18 158 42 47 14 95 27 105 29 10 2 37 9 59 15 22 6 56 15 75 20 19 4 170
45 335 90 330 90 549 149 580 155 36 8 59 14 150 40 50 14 97 28 105 29 12 3
92 24 195 51 143 37 174 50 305 124 30 17 106 59 168 93 61 34 112 65 112 68
0 3 -10 6 -22 7 -13 0 -50 3 -83 7 -33 3 -85 8 -115 11 -30 3 -75 8 -100 11
-25 3 -64 7 -86 9 -58 5 -161 15 -209 21 -22 3 -58 7 -80 9 -22 2 -67 7 -100
11 -33 3 -73 8 -90 9 -16 1 -97 19 -180 40 -82 20 -161 39 -175 41 -14 3 -33
7 -42 10 -9 3 -25 7 -35 9 -10 2 -94 22 -188 45 -93 23 -178 44 -187 46 -10 2
-28 7 -40 10 -41 10 -103 25 -123 28 -11 2 -47 11 -80 20 -64 18 -85 23 -125
30 -14 3 -87 -16 -170 -44z"/>
<path d="M5145 2988 c-77 -44 -178 -100 -225 -125 -47 -25 -89 -49 -95 -53
-16 -11 -112 -40 -133 -40 -10 0 -22 -3 -26 -7 -3 -4 -12 -8 -19 -9 -7 -1 -66
-16 -132 -34 -130 -34 -146 -38 -159 -39 -5 -1 -6 -22 -2 -48 4 -27 9 -61 11
-78 11 -75 27 -182 31 -205 2 -14 7 -45 10 -70 7 -55 23 -90 41 -90 7 0 13 -4
13 -9 0 -5 15 -19 33 -30 17 -11 43 -30 57 -43 14 -13 52 -43 85 -68 77 -59
193 -149 214 -166 9 -7 95 -74 191 -149 l175 -136 25 53 c14 29 36 77 49 107
25 60 24 26 16 496 -3 143 -7 385 -9 539 -3 153 -6 279 -8 281 -2 1 -66 -34
-143 -77z"/>
<path d="M4190 2634 c-210 -57 -270 -72 -270 -67 0 3 -6 1 -12 -4 -7 -6 -33
-15 -58 -21 -148 -39 -389 -103 -415 -111 -16 -5 -49 -15 -72 -21 -34 -8 -41
-14 -36 -28 4 -9 9 -19 13 -22 3 -3 17 -25 29 -50 13 -25 33 -63 45 -85 13
-22 37 -67 55 -100 70 -126 93 -165 98 -165 3 0 77 23 164 50 87 28 161 51
164 50 3 0 21 6 40 14 20 9 38 15 40 15 8 0 234 71 299 93 32 11 65 21 74 22
19 3 22 22 12 77 -5 24 -11 69 -15 99 -3 30 -8 62 -10 70 -2 8 -6 35 -10 60
-16 125 -21 145 -35 146 -8 1 -53 -9 -100 -22z"/>
</g>
</svg>
