<?xml version="1.0" encoding="UTF-8" standalone="no"?>
<svg
   xmlns:dc="http://purl.org/dc/elements/1.1/"
   xmlns:cc="http://creativecommons.org/ns#"
   xmlns:rdf="http://www.w3.org/1999/02/22-rdf-syntax-ns#"
   xmlns:svg="http://www.w3.org/2000/svg"
   xmlns="http://www.w3.org/2000/svg"
   xmlns:sodipodi="http://sodipodi.sourceforge.net/DTD/sodipodi-0.dtd"
   xmlns:inkscape="http://www.inkscape.org/namespaces/inkscape"
   class="crane"
   version="1.1"
   x="0px"
   y="0px"
   viewBox="0 0 100 80"
   enable-background="new 0 0 100 100"
   xml:space="preserve"
   id="svg34"
   sodipodi:docname="crane.svg"
   inkscape:version="0.92.3 (2405546, 2018-03-11)"
   width="80"
   height="60"><metadata
     id="metadata40"><rdf:RDF><cc:Work
         rdf:about=""><dc:format>image/svg+xml</dc:format><dc:type
           rdf:resource="http://purl.org/dc/dcmitype/StillImage" /><dc:title></dc:title></cc:Work></rdf:RDF></metadata><defs
     id="defs38" /><sodipodi:namedview
     pagecolor="#000000"
     bordercolor="#666666"
     borderopacity="1"
     objecttolerance="10"
     gridtolerance="10"
     guidetolerance="10"
     inkscape:pageopacity="0"
     inkscape:pageshadow="2"
     inkscape:window-width="1920"
     inkscape:window-height="1055"
     id="namedview36"
     showgrid="false"
     inkscape:zoom="6.1841329"
     inkscape:cx="24.378136"
     inkscape:cy="68.32135"
     inkscape:window-x="1366"
     inkscape:window-y="0"
     inkscape:window-maximized="1"
     inkscape:current-layer="svg34"
     showguides="true"
     inkscape:guide-bbox="true"><sodipodi:guide
       position="5.4979414,106.40134"
       orientation="0,1"
       id="guide828"
       inkscape:locked="false" /><sodipodi:guide
       position="6.144758,43.983531"
       orientation="0,1"
       id="guide830"
       inkscape:locked="false" /></sodipodi:namedview><polygon
     points="66.428,55.946 69.27,51.932 63.74,53.062 "
     id="polygon2"
     style="fill:#FFFFFF"
     transform="matrix(1.0535805,0,0,1.0386029,-2.207303,-14.132474)" /><polygon
     points="55.141,44.636 63.672,59.841 66.107,56.4 "
     id="polygon4"
     style="fill:#FFFFFF"
     transform="matrix(1.0535805,0,0,1.0386029,-2.207303,-14.132474)" /><polygon
     points="59.221,66.521 59.229,66.553 59.107,66.586 59.1,66.59 59.1,66.588 53.682,68.062 54.494,73.649 63.975,81.146 65.123,78.565 64.857,63.335 "
     id="polygon6"
     style="fill:#FFFFFF"
     transform="matrix(1.0535805,0,0,1.0386029,-2.207303,-14.132474)" /><polygon
     points="65.188,62.983 65.258,63.108 65.174,62.957 "
     id="polygon8"
     style="fill:#FFFFFF"
     transform="matrix(1.0535805,0,0,1.0386029,-2.207303,-14.132474)" /><polygon
     points="65.402,63.32 65.646,77.387 84.76,34.407 82.342,34.407 63.967,60.366 65.312,62.764 65.402,62.887 "
     id="polygon10"
     style="fill:#FFFFFF"
     transform="matrix(1.0535805,0,0,1.0386029,-2.207303,-14.132474)" /><polygon
     points="76.512,60.519 81.012,58.636 90.617,48.285 80.893,50.107 "
     id="polygon12"
     style="fill:#FFFFFF"
     transform="matrix(1.0535805,0,0,1.0386029,-2.207303,-14.132474)" /><polyline
     points="94.408,43.13 88.643,37.743 88.643,37.743 85.273,34.595 85.105,34.971 85.105,34.971   84.971,35.272 84.568,36.18 94.408,43.13 "
     id="polyline14"
     style="fill:#FFFFFF"
     transform="matrix(1.0535805,0,0,1.0386029,-2.207303,-14.132474)" /><polygon
     points="35.281,59.377 38.417,58.346 39.175,58.119 39.263,58.072 41.879,55.25 14.205,18.854 "
     id="polygon16"
     style="fill:#FFFFFF"
     transform="matrix(1.0535805,0,0,1.0386029,-2.207303,-14.132474)" /><polygon
     points="53.152,68.205 41.47,71.382 44.351,76.707 53.943,73.64 "
     id="polygon18"
     style="fill:#FFFFFF"
     transform="matrix(1.0535805,0,0,1.0386029,-2.207303,-14.132474)" /><polygon
     points="80.666,49.393 85.682,37.633 84.342,36.687 65.752,78.491 67.617,79.984 "
     id="polygon20"
     style="fill:#FFFFFF"
     transform="matrix(1.0535805,0,0,1.0386029,-2.207303,-14.132474)" /><polygon
     points="58.898,66.078 64.031,63.176 52.984,62.014 52.986,62 39.276,58.636 27.899,62.378 3.869,81.043 "
     id="polygon22"
     style="fill:#FFFFFF"
     transform="matrix(1.0535805,0,0,1.0386029,-2.207303,-14.132474)" /><polygon
     points="39.868,58.221 52.82,61.398 53.496,43.517 "
     id="polygon24"
     style="fill:#FFFFFF"
     transform="matrix(1.0535805,0,0,1.0386029,-2.207303,-14.132474)" /><polyline
     points="93.592,41.62 87.975,34.549 86.17,34.687 93.592,41.62 "
     id="polyline26"
     style="fill:#FFFFFF"
     transform="matrix(1.0535805,0,0,1.0386029,-2.207303,-14.132474)" /><polygon
     points="53.361,61.506 64.648,62.693 54.031,43.769 "
     id="polygon28"
     style="fill:#FFFFFF"
     transform="matrix(1.0535805,0,0,1.0386029,-2.207303,-14.132474)" /></svg>